{"title":"Falling.Skies.S02E01.HDTV.DivX-Atilla82","uid":7395050,"size":365875075,"categoryP":"video","categoryS":"tv_shows","magnet":"?xt=urn:btih:b93b5406929b2a8e4fde8632d85ac05eddcfbc64&amp;dn=Falling.Skies.S02E01.HDTV.DivX-Atilla82&amp;tr=udp%3A%2F%2Ftracker.openbittorrent.com%3A80&amp;tr=udp%3A%2F%2Fopen.demonii.com%3A1337&amp;tr=udp%3A%2F%2Ftracker.coppersurfer.tk%3A6969&amp;tr=udp%3A%2F%2Fexodus.desync.com%3A6969","seeders":1,"leechers":0,"uploader":"Atilla82","files":4,"time":1340893281,"description":"Falling.Skies.S02E01.HDTV.DivX-Atilla82\n\n &lt;a href=&quot;\nhttp://www.imdb.com/title/tt1462059/&quot; rel=&quot;nofollow&quot; target=&quot;_NEW&quot;&gt;\nhttp://www.imdb.com/title/tt1462059/&lt;/a&gt;\n\nSurvivors of an alien attack on earth gather together to fight for their lives and fight back.\n\nlanguage: English\n\n\nGeneral\nComplete name : Falling.Skies.S02E01.HDTV.DivX-Atilla82.avi\nFormat : AVI\nFormat/Info : Audio Video Interleave\nFile size : 349 MiB\nDuration : 42mn 18s\nOverall bit rate : 1 153 Kbps\nWriting application : VirtualDubMod 1.5.10.2 (build 2540/release)\nWriting library : VirtualDubMod build 2540/release\n\nVideo\nID : 0\nFormat : MPEG-4 Visual\nFormat settings, BVOP : 1\nFormat settings, QPel : No\nFormat settings, GMC : No warppoints\nFormat settings, Matrix : Default (H.263)\nMuxing mode : Packed bitstream\nCodec ID : DX50\nCodec ID/Hint : DivX 5\nDuration : 42mn 18s\nBit rate : 1 015 Kbps\nWidth : 680 pixels\nHeight : 384 pixels\nDisplay aspect ratio : 16:9\nFrame rate : 23.976 fps\nColor space : YUV\nChroma subsampling : 4:2:0\nBit depth : 8 bits\nScan type : Progressive\nCompression mode : Lossy\nBits/(Pixel*Frame) : 0.162\nStream size : 307 MiB (88%)\nWriting library : DivX 3330\n\nAudio\nID : 1\nFormat : MPEG Audio\nFormat version : Version 1\nFormat profile : Layer 3\nCodec ID : 55\nCodec ID/Hint : MP3\nDuration : 42mn 18s\nBit rate mode : Constant\nBit rate : 128 Kbps\nChannel(s) : 2 channels\nSampling rate : 48.0 KHz\nCompression mode : Lossy\nStream size : 38.7 MiB (11%)\nAlignment : Aligned on interleaves\nInterleave, duration : 42 ms (1.00 video frame)\nInterleave, preload duration : 504 ms\nWriting library : LAME3.98.4ÅžÅžÅžÅžÅžÅžÅžÅžÅžÅž\n\n\nSCREENS &lt;a href=&quot;\nhttp://www.pohrani.com/f/g/z4/Igcoofx/201.jpg&quot; rel=&quot;nofollow&quot; target=&quot;_NEW&quot;&gt;\nhttp://www.pohrani.com/f/g/z4/Igcoofx/201.jpg&lt;/a&gt;\n\n","torrent":{"xt":"urn:btih:b93b5406929b2a8e4fde8632d85ac05eddcfbc64","amp;dn":"Falling.Skies.S02E01.HDTV.DivX-Atilla82","amp;tr":["udp%3A%2F%2Ftracker.openbittorrent.com%3A80","udp%3A%2F%2Fopen.demonii.com%3A1337","udp%3A%2F%2Ftracker.coppersurfer.tk%3A6969","udp%3A%2F%2Fexodus.desync.com%3A6969"],"infoHash":"b93b5406929b2a8e4fde8632d85ac05eddcfbc64","infoHashBuffer":{"type":"Buffer","data":[185,59,84,6,146,155,42,142,79,222,134,50,216,90,192,94,221,207,188,100]},"announce":[],"urlList":[]}}